<?xml version="1.0" encoding="utf-8"?>
<!-- Generator: Adobe Illustrator 16.0.0, SVG Export Plug-In . SVG Version: 6.00 Build 0)  -->
<!DOCTYPE svg PUBLIC "-//W3C//DTD SVG 1.1//EN" "http://www.w3.org/Graphics/SVG/1.1/DTD/svg11.dtd">
<svg version="1.1" xmlns="http://www.w3.org/2000/svg" xmlns:xlink="http://www.w3.org/1999/xlink" x="0px" y="0px" width="300px"
	 height="300px" viewBox="0 0 300 300" enable-background="new 0 0 300 300" xml:space="preserve">
<g id="Layer_2">
	<path d="M-371.631-94.591c-15.136,0-28.625-2.931-40.469-8.779c-11.851-5.848-21.131-13.771-27.836-23.768
		c-6.711-9.99-10.064-21.265-10.064-33.831c0-15.417,3.995-27.622,11.991-36.615c7.989-8.993,20.984-15.483,38.97-19.485
		c17.986-3.995,42.109-5.995,72.374-5.995h14.988v-8.993c0-14.272-3.145-24.551-9.421-30.834c-6.283-6.276-16.849-9.421-31.69-9.421
		c-8.284,0-17.204,1.003-26.766,2.998c-9.569,2.001-19.632,5.427-30.191,10.278c-6.852,3.145-12.566,3.5-17.13,1.071
		c-4.57-2.422-7.642-6.276-9.208-11.563c-1.572-5.28-1.285-10.633,0.856-16.06c2.142-5.42,6.491-9.421,13.062-11.991
		c13.128-5.42,25.762-9.274,37.9-11.563c12.132-2.282,23.192-3.426,33.189-3.426c30.546,0,53.243,7.066,68.091,21.198
		c14.841,14.132,22.269,36.046,22.269,65.736v102.779c0,18.273-8.284,27.407-24.838,27.407c-16.849,0-25.267-9.134-25.267-27.407
		v-9.422c-4.858,11.71-12.566,20.917-23.125,27.622C-344.511-97.95-357.071-94.591-371.631-94.591z M-360.497-131.42
		c13.985,0,25.621-4.852,34.902-14.561c9.274-9.702,13.918-21.98,13.918-36.829v-9.421h-14.56c-26.839,0-45.468,2.074-55.886,6.209
		c-10.425,4.143-15.631,11.637-15.631,22.483c0,9.421,3.279,17.13,9.85,23.125C-381.34-134.418-372.207-131.42-360.497-131.42z"/>
	<path d="M-63.295-94.591c-55.391,0-83.08-27.407-83.08-82.224v-91.216h-22.269c-14.279,0-21.412-6.705-21.412-20.127
		c0-13.416,7.133-20.127,21.412-20.127h22.269v-38.971c0-17.986,8.993-26.979,26.979-26.979c17.699,0,26.551,8.993,26.551,26.979
		v38.971h45.395c14.271,0,21.412,6.711,21.412,20.127c0,13.423-7.141,20.127-21.412,20.127h-45.395v88.219
		c0,13.704,2.998,23.981,8.993,30.834c5.996,6.852,15.698,10.277,29.12,10.277c4.852,0,9.135-0.428,12.848-1.284
		c3.707-0.856,6.992-1.426,9.85-1.713c3.426-0.281,6.277,0.789,8.566,3.211c2.281,2.43,3.426,7.354,3.426,14.775
		c0,5.714-0.932,10.779-2.785,15.202c-1.859,4.43-5.211,7.494-10.063,9.207c-3.715,1.138-8.566,2.209-14.561,3.212
		C-53.445-95.093-58.731-94.591-63.295-94.591z"/>
	<path d="M371.371-95.448c-17.706,0-26.552-9.134-26.552-27.407v-161.878c0-17.986,8.706-26.979,26.123-26.979
		c17.411,0,26.123,8.993,26.123,26.979v8.565c6.276-11.416,14.989-20.342,26.123-26.765c11.135-6.424,23.982-9.636,38.542-9.636
		c31.403,0,51.959,13.704,61.668,41.112c6.564-12.848,15.985-22.911,28.265-30.191c12.271-7.28,26.264-10.92,41.968-10.92
		c47.107,0,70.661,28.692,70.661,86.078v103.636c0,18.273-8.993,27.407-26.979,27.407c-17.706,0-26.552-9.134-26.552-27.407V-224.35
		c0-15.985-2.643-27.688-7.923-35.116c-5.286-7.42-14.205-11.134-26.765-11.134c-13.992,0-24.986,4.925-32.976,14.774
		c-7.996,9.85-11.99,23.487-11.99,40.898v92.073c0,18.273-8.854,27.407-26.552,27.407c-17.986,0-26.979-9.134-26.979-27.407V-224.35
		c0-15.985-2.644-27.688-7.923-35.116c-5.286-7.42-14.065-11.134-26.337-11.134c-13.992,0-24.985,4.925-32.975,14.774
		c-7.997,9.85-11.991,23.487-11.991,40.898v92.073C398.351-104.582,389.357-95.448,371.371-95.448z"/>
	<g>
		<circle fill="#7F62AA" cx="157.949" cy="-212.804" r="111.765"/>
		<circle fill="#7F62AA" cx="269.714" cy="-340.007" r="37.843"/>
	</g>
	<g>
		<circle fill="#7F62AA" cx="130.323" cy="177.731" r="118.323"/>
		<circle fill="#7F62AA" cx="248.646" cy="43.064" r="40.063"/>
	</g>
</g>
<g id="Layer_3">
</g>
</svg>
